<?xml version="1.0" encoding="UTF-8" standalone="no"?>
<!DOCTYPE svg PUBLIC "-//W3C//DTD SVG 1.1//EN"
 "http://www.w3.org/Graphics/SVG/1.1/DTD/svg11.dtd">
<!-- Generated by graphviz version 2.47.0 (20210316.0004)
 -->
<!-- Title: dependencies Pages: 1 -->
<svg width="510pt" height="211pt"
 viewBox="0.00 0.00 510.00 211.00" xmlns="http://www.w3.org/2000/svg" xmlns:xlink="http://www.w3.org/1999/xlink">
<g id="graph0" class="graph" transform="scale(1 1) rotate(0) translate(4 207)">
<title>dependencies</title>
<polygon fill="white" stroke="transparent" points="-4,4 -4,-207 506,-207 506,4 -4,4"/>
<text text-anchor="start" x="230.01" y="-42.4" font-family="Times-12" font-weight="bold" font-size="14.00">Legend</text>
<polygon fill="#ffffb3" stroke="transparent" points="17,-10 17,-30 37,-30 37,-10 17,-10"/>
<text text-anchor="start" x="40.63" y="-15.4" font-family="Times-12" font-size="14.00"> &#160;Declarations</text>
<polygon fill="#8dd3c7" stroke="transparent" points="130,-10 130,-30 150,-30 150,-10 130,-10"/>
<text text-anchor="start" x="153.73" y="-15.4" font-family="Times-12" font-size="14.00"> &#160;Module</text>
<polygon fill="#80b1d3" stroke="transparent" points="216,-10 216,-30 236,-30 236,-10 216,-10"/>
<text text-anchor="start" x="239.78" y="-15.4" font-family="Times-12" font-size="14.00"> &#160;Bootstrap</text>
<polygon fill="#fdb462" stroke="transparent" points="313,-10 313,-30 333,-30 333,-10 313,-10"/>
<text text-anchor="start" x="336.67" y="-15.4" font-family="Times-12" font-size="14.00"> &#160;Providers</text>
<polygon fill="#fb8072" stroke="transparent" points="409,-10 409,-30 429,-30 429,-10 409,-10"/>
<text text-anchor="start" x="432.73" y="-15.4" font-family="Times-12" font-size="14.00"> &#160;Exports</text>
<g id="clust1" class="cluster">
<title>cluster_AppModule</title>
<polygon fill="none" stroke="black" stroke-dasharray="1,5" points="8,-70 8,-195 494,-195 494,-70 8,-70"/>
</g>
<g id="clust3" class="cluster">
<title>cluster_AppModule_imports</title>
<polygon fill="none" stroke="black" points="16,-78 16,-130 486,-130 486,-78 16,-78"/>
</g>
<!-- MetaOptionsModule -->
<g id="node1" class="node">
<title>MetaOptionsModule</title>
<polygon fill="#8dd3c7" stroke="black" points="478.15,-122 475.15,-126 454.15,-126 451.15,-122 345.85,-122 345.85,-86 478.15,-86 478.15,-122"/>
<text text-anchor="middle" x="412" y="-99.8" font-family="Times,serif" font-size="14.00">MetaOptionsModule</text>
</g>
<!-- AppModule -->
<g id="node5" class="node">
<title>AppModule</title>
<polygon fill="#8dd3c7" stroke="black" points="271.66,-187 268.66,-191 247.66,-191 244.66,-187 188.34,-187 188.34,-151 271.66,-151 271.66,-187"/>
<text text-anchor="middle" x="230" y="-164.8" font-family="Times,serif" font-size="14.00">AppModule</text>
</g>
<!-- MetaOptionsModule&#45;&gt;AppModule -->
<g id="edge1" class="edge">
<title>MetaOptionsModule&#45;&gt;AppModule</title>
<path fill="none" stroke="black" d="M412,-122.11C412,-141.34 412,-169 412,-169 412,-169 281.75,-169 281.75,-169"/>
<polygon fill="black" stroke="black" points="281.75,-165.5 271.75,-169 281.75,-172.5 281.75,-165.5"/>
</g>
<!-- PostsModule -->
<g id="node2" class="node">
<title>PostsModule</title>
<polygon fill="#8dd3c7" stroke="black" points="327.61,-122 324.61,-126 303.61,-126 300.61,-122 238.39,-122 238.39,-86 327.61,-86 327.61,-122"/>
<text text-anchor="middle" x="283" y="-99.8" font-family="Times,serif" font-size="14.00">PostsModule</text>
</g>
<!-- PostsModule&#45;&gt;AppModule -->
<g id="edge2" class="edge">
<title>PostsModule&#45;&gt;AppModule</title>
<path fill="none" stroke="black" d="M255.14,-122.11C255.14,-122.11 255.14,-140.99 255.14,-140.99"/>
<polygon fill="black" stroke="black" points="251.64,-140.99 255.14,-150.99 258.64,-140.99 251.64,-140.99"/>
</g>
<!-- TagsModule -->
<g id="node3" class="node">
<title>TagsModule</title>
<polygon fill="#8dd3c7" stroke="black" points="220.26,-122 217.26,-126 196.26,-126 193.26,-122 133.74,-122 133.74,-86 220.26,-86 220.26,-122"/>
<text text-anchor="middle" x="177" y="-99.8" font-family="Times,serif" font-size="14.00">TagsModule</text>
</g>
<!-- TagsModule&#45;&gt;AppModule -->
<g id="edge3" class="edge">
<title>TagsModule&#45;&gt;AppModule</title>
<path fill="none" stroke="black" d="M204.28,-122.11C204.28,-122.11 204.28,-140.99 204.28,-140.99"/>
<polygon fill="black" stroke="black" points="200.78,-140.99 204.28,-150.99 207.78,-140.99 200.78,-140.99"/>
</g>
<!-- UsersModule -->
<g id="node4" class="node">
<title>UsersModule</title>
<polygon fill="#8dd3c7" stroke="black" points="115.92,-122 112.92,-126 91.92,-126 88.92,-122 24.08,-122 24.08,-86 115.92,-86 115.92,-122"/>
<text text-anchor="middle" x="70" y="-99.8" font-family="Times,serif" font-size="14.00">UsersModule</text>
</g>
<!-- UsersModule&#45;&gt;AppModule -->
<g id="edge4" class="edge">
<title>UsersModule&#45;&gt;AppModule</title>
<path fill="none" stroke="black" d="M70,-122.11C70,-141.34 70,-169 70,-169 70,-169 177.96,-169 177.96,-169"/>
<polygon fill="black" stroke="black" points="177.96,-172.5 187.96,-169 177.96,-165.5 177.96,-172.5"/>
</g>
</g>
</svg>
