<?xml version="1.0" encoding="UTF-8" standalone="no"?>
<!DOCTYPE svg PUBLIC "-//W3C//DTD SVG 1.1//EN"
 "http://www.w3.org/Graphics/SVG/1.1/DTD/svg11.dtd">
<!-- Generated by graphviz version 2.47.0 (20210316.0004)
 -->
<!-- Title: dependencies Pages: 1 -->
<svg width="845pt" height="363pt"
 viewBox="0.00 0.00 845.00 363.00" xmlns="http://www.w3.org/2000/svg" xmlns:xlink="http://www.w3.org/1999/xlink">
<g id="graph0" class="graph" transform="scale(1 1) rotate(0) translate(4 359)">
<title>dependencies</title>
<polygon fill="white" stroke="transparent" points="-4,4 -4,-359 841,-359 841,4 -4,4"/>
<text text-anchor="start" x="397.51" y="-42.4" font-family="Times-12" font-weight="bold" font-size="14.00">Legend</text>
<polygon fill="#ffffb3" stroke="transparent" points="184.5,-10 184.5,-30 204.5,-30 204.5,-10 184.5,-10"/>
<text text-anchor="start" x="208.13" y="-15.4" font-family="Times-12" font-size="14.00"> &#160;Declarations</text>
<polygon fill="#8dd3c7" stroke="transparent" points="297.5,-10 297.5,-30 317.5,-30 317.5,-10 297.5,-10"/>
<text text-anchor="start" x="321.23" y="-15.4" font-family="Times-12" font-size="14.00"> &#160;Module</text>
<polygon fill="#80b1d3" stroke="transparent" points="383.5,-10 383.5,-30 403.5,-30 403.5,-10 383.5,-10"/>
<text text-anchor="start" x="407.28" y="-15.4" font-family="Times-12" font-size="14.00"> &#160;Bootstrap</text>
<polygon fill="#fdb462" stroke="transparent" points="480.5,-10 480.5,-30 500.5,-30 500.5,-10 480.5,-10"/>
<text text-anchor="start" x="504.17" y="-15.4" font-family="Times-12" font-size="14.00"> &#160;Providers</text>
<polygon fill="#fb8072" stroke="transparent" points="576.5,-10 576.5,-30 596.5,-30 596.5,-10 576.5,-10"/>
<text text-anchor="start" x="600.23" y="-15.4" font-family="Times-12" font-size="14.00"> &#160;Exports</text>
<g id="clust1" class="cluster">
<title>cluster_AppModule</title>
<polygon fill="none" stroke="black" stroke-dasharray="1,5" points="168,-146 168,-347 547,-347 547,-146 168,-146"/>
</g>
<g id="clust3" class="cluster">
<title>cluster_AppModule_imports</title>
<polygon fill="none" stroke="black" points="176,-154 176,-282 539,-282 539,-154 176,-154"/>
</g>
<g id="clust7" class="cluster">
<title>cluster_MetaOptionsModule</title>
<polygon fill="none" stroke="black" stroke-dasharray="1,5" points="144,-70 144,-138 356,-138 356,-70 144,-70"/>
</g>
<g id="clust12" class="cluster">
<title>cluster_MetaOptionsModule_providers</title>
<polygon fill="none" stroke="black" points="152,-78 152,-130 348,-130 348,-78 152,-78"/>
</g>
<g id="clust13" class="cluster">
<title>cluster_PostsModule</title>
<polygon fill="none" stroke="black" stroke-dasharray="1,5" points="8,-146 8,-214 160,-214 160,-146 8,-146"/>
</g>
<g id="clust18" class="cluster">
<title>cluster_PostsModule_providers</title>
<polygon fill="none" stroke="black" points="16,-154 16,-206 152,-206 152,-154 16,-154"/>
</g>
<g id="clust25" class="cluster">
<title>cluster_UsersModule</title>
<polygon fill="none" stroke="black" stroke-dasharray="1,5" points="555,-222 555,-290 829,-290 829,-222 555,-222"/>
</g>
<g id="clust28" class="cluster">
<title>cluster_UsersModule_exports</title>
<polygon fill="none" stroke="black" points="711,-230 711,-282 821,-282 821,-230 711,-230"/>
</g>
<g id="clust30" class="cluster">
<title>cluster_UsersModule_providers</title>
<polygon fill="none" stroke="black" points="563,-230 563,-282 703,-282 703,-230 563,-230"/>
</g>
<!-- MetaOptionsModule -->
<g id="node1" class="node">
<title>MetaOptionsModule</title>
<polygon fill="#8dd3c7" stroke="black" points="316.15,-198 313.15,-202 292.15,-202 289.15,-198 183.85,-198 183.85,-162 316.15,-162 316.15,-198"/>
<text text-anchor="middle" x="250" y="-175.8" font-family="Times,serif" font-size="14.00">MetaOptionsModule</text>
</g>
<!-- AppModule -->
<g id="node5" class="node">
<title>AppModule</title>
<polygon fill="#8dd3c7" stroke="black" points="409.66,-339 406.66,-343 385.66,-343 382.66,-339 326.34,-339 326.34,-303 409.66,-303 409.66,-339"/>
<text text-anchor="middle" x="368" y="-316.8" font-family="Times,serif" font-size="14.00">AppModule</text>
</g>
<!-- MetaOptionsModule&#45;&gt;AppModule -->
<g id="edge1" class="edge">
<title>MetaOptionsModule&#45;&gt;AppModule</title>
<path fill="none" stroke="black" d="M216.56,-198.14C216.56,-236.23 216.56,-321 216.56,-321 216.56,-321 316.22,-321 316.22,-321"/>
<polygon fill="black" stroke="black" points="316.22,-324.5 326.22,-321 316.22,-317.5 316.22,-324.5"/>
</g>
<!-- PostsModule -->
<g id="node2" class="node">
<title>PostsModule</title>
<polygon fill="#8dd3c7" stroke="black" points="338.61,-274 335.61,-278 314.61,-278 311.61,-274 249.39,-274 249.39,-238 338.61,-238 338.61,-274"/>
<text text-anchor="middle" x="294" y="-251.8" font-family="Times,serif" font-size="14.00">PostsModule</text>
</g>
<!-- PostsModule&#45;&gt;AppModule -->
<g id="edge2" class="edge">
<title>PostsModule&#45;&gt;AppModule</title>
<path fill="none" stroke="black" d="M332.36,-274.11C332.36,-274.11 332.36,-292.99 332.36,-292.99"/>
<polygon fill="black" stroke="black" points="328.86,-292.99 332.36,-302.99 335.86,-292.99 328.86,-292.99"/>
</g>
<!-- TagsModule -->
<g id="node3" class="node">
<title>TagsModule</title>
<polygon fill="#8dd3c7" stroke="black" points="421.26,-198 418.26,-202 397.26,-202 394.26,-198 334.74,-198 334.74,-162 421.26,-162 421.26,-198"/>
<text text-anchor="middle" x="378" y="-175.8" font-family="Times,serif" font-size="14.00">TagsModule</text>
</g>
<!-- TagsModule&#45;&gt;AppModule -->
<g id="edge3" class="edge">
<title>TagsModule&#45;&gt;AppModule</title>
<path fill="none" stroke="black" d="M374.19,-198.14C374.19,-198.14 374.19,-292.93 374.19,-292.93"/>
<polygon fill="black" stroke="black" points="370.69,-292.92 374.19,-302.93 377.69,-292.93 370.69,-292.92"/>
</g>
<!-- UsersModule -->
<g id="node4" class="node">
<title>UsersModule</title>
<polygon fill="#8dd3c7" stroke="black" points="530.92,-198 527.92,-202 506.92,-202 503.92,-198 439.08,-198 439.08,-162 530.92,-162 530.92,-198"/>
<text text-anchor="middle" x="485" y="-175.8" font-family="Times,serif" font-size="14.00">UsersModule</text>
</g>
<!-- UsersModule&#45;&gt;PostsModule -->
<g id="edge6" class="edge">
<title>UsersModule&#45;&gt;PostsModule</title>
<path fill="none" stroke="black" d="M462.14,-198.03C462.14,-218.77 462.14,-250 462.14,-250 462.14,-250 348.62,-250 348.62,-250"/>
<polygon fill="black" stroke="black" points="348.62,-246.5 338.62,-250 348.62,-253.5 348.62,-246.5"/>
</g>
<!-- UsersModule&#45;&gt;AppModule -->
<g id="edge4" class="edge">
<title>UsersModule&#45;&gt;AppModule</title>
<path fill="none" stroke="black" d="M485,-198.14C485,-236.23 485,-321 485,-321 485,-321 419.91,-321 419.91,-321"/>
<polygon fill="black" stroke="black" points="419.91,-317.5 409.91,-321 419.91,-324.5 419.91,-317.5"/>
</g>
<!-- UsersService  -->
<g id="node8" class="node">
<title>UsersService </title>
<polygon fill="#fb8072" stroke="black" points="812.85,-274 719.15,-274 719.15,-238 812.85,-238 812.85,-274"/>
<text text-anchor="middle" x="766" y="-251.8" font-family="Times,serif" font-size="14.00">UsersService </text>
</g>
<!-- UsersModule&#45;&gt;UsersService  -->
<g id="edge8" class="edge">
<title>UsersModule&#45;&gt;UsersService </title>
<path fill="none" stroke="black" stroke-dasharray="5,2" d="M530.77,-180C610.4,-180 766,-180 766,-180 766,-180 766,-227.99 766,-227.99"/>
<polygon fill="black" stroke="black" points="762.5,-227.99 766,-237.99 769.5,-227.99 762.5,-227.99"/>
</g>
<!-- MetaOptionsService -->
<g id="node6" class="node">
<title>MetaOptionsService</title>
<ellipse fill="#fdb462" stroke="black" cx="250" cy="-104" rx="90.33" ry="18"/>
<text text-anchor="middle" x="250" y="-99.8" font-family="Times,serif" font-size="14.00">MetaOptionsService</text>
</g>
<!-- MetaOptionsService&#45;&gt;MetaOptionsModule -->
<g id="edge5" class="edge">
<title>MetaOptionsService&#45;&gt;MetaOptionsModule</title>
<path fill="none" stroke="black" d="M250,-122.01C250,-122.01 250,-151.85 250,-151.85"/>
<polygon fill="black" stroke="black" points="246.5,-151.85 250,-161.85 253.5,-151.85 246.5,-151.85"/>
</g>
<!-- PostsService -->
<g id="node7" class="node">
<title>PostsService</title>
<ellipse fill="#fdb462" stroke="black" cx="84" cy="-180" rx="60.27" ry="18"/>
<text text-anchor="middle" x="84" y="-175.8" font-family="Times,serif" font-size="14.00">PostsService</text>
</g>
<!-- PostsService&#45;&gt;PostsModule -->
<g id="edge7" class="edge">
<title>PostsService&#45;&gt;PostsModule</title>
<path fill="none" stroke="black" d="M84,-198.01C84,-220.49 84,-256 84,-256 84,-256 239.21,-256 239.21,-256"/>
<polygon fill="black" stroke="black" points="239.21,-259.5 249.21,-256 239.21,-252.5 239.21,-259.5"/>
</g>
<!-- UsersService -->
<g id="node9" class="node">
<title>UsersService</title>
<ellipse fill="#fdb462" stroke="black" cx="633" cy="-256" rx="61.95" ry="18"/>
<text text-anchor="middle" x="633" y="-251.8" font-family="Times,serif" font-size="14.00">UsersService</text>
</g>
<!-- UsersService&#45;&gt;UsersModule -->
<g id="edge9" class="edge">
<title>UsersService&#45;&gt;UsersModule</title>
<path fill="none" stroke="black" d="M574.46,-262C541.89,-262 507.86,-262 507.86,-262 507.86,-262 507.86,-208.2 507.86,-208.2"/>
<polygon fill="black" stroke="black" points="511.36,-208.2 507.86,-198.2 504.36,-208.2 511.36,-208.2"/>
</g>
</g>
</svg>
