<?xml version="1.0" encoding="UTF-8" standalone="no"?>
<!DOCTYPE svg PUBLIC "-//W3C//DTD SVG 1.1//EN"
 "http://www.w3.org/Graphics/SVG/1.1/DTD/svg11.dtd">
<!-- Generated by graphviz version 2.47.0 (20210316.0004)
 -->
<!-- Title: dependencies Pages: 1 -->
<svg width="600pt" height="287pt"
 viewBox="0.00 0.00 600.00 287.00" xmlns="http://www.w3.org/2000/svg" xmlns:xlink="http://www.w3.org/1999/xlink">
<g id="graph0" class="graph" transform="scale(1 1) rotate(0) translate(4 283)">
<title>dependencies</title>
<polygon fill="white" stroke="transparent" points="-4,4 -4,-283 596,-283 596,4 -4,4"/>
<text text-anchor="start" x="275.01" y="-42.4" font-family="Times-12" font-weight="bold" font-size="14.00">Legend</text>
<polygon fill="#ffffb3" stroke="transparent" points="62,-10 62,-30 82,-30 82,-10 62,-10"/>
<text text-anchor="start" x="85.63" y="-15.4" font-family="Times-12" font-size="14.00"> &#160;Declarations</text>
<polygon fill="#8dd3c7" stroke="transparent" points="175,-10 175,-30 195,-30 195,-10 175,-10"/>
<text text-anchor="start" x="198.73" y="-15.4" font-family="Times-12" font-size="14.00"> &#160;Module</text>
<polygon fill="#80b1d3" stroke="transparent" points="261,-10 261,-30 281,-30 281,-10 261,-10"/>
<text text-anchor="start" x="284.78" y="-15.4" font-family="Times-12" font-size="14.00"> &#160;Bootstrap</text>
<polygon fill="#fdb462" stroke="transparent" points="358,-10 358,-30 378,-30 378,-10 358,-10"/>
<text text-anchor="start" x="381.67" y="-15.4" font-family="Times-12" font-size="14.00"> &#160;Providers</text>
<polygon fill="#fb8072" stroke="transparent" points="454,-10 454,-30 474,-30 474,-10 454,-10"/>
<text text-anchor="start" x="477.73" y="-15.4" font-family="Times-12" font-size="14.00"> &#160;Exports</text>
<g id="clust1" class="cluster">
<title>cluster_AppModule</title>
<polygon fill="none" stroke="black" stroke-dasharray="1,5" points="168,-70 168,-271 302,-271 302,-70 168,-70"/>
</g>
<g id="clust3" class="cluster">
<title>cluster_AppModule_imports</title>
<polygon fill="none" stroke="black" points="176,-78 176,-206 284,-206 284,-78 176,-78"/>
</g>
<g id="clust7" class="cluster">
<title>cluster_PostsModule</title>
<polygon fill="none" stroke="black" stroke-dasharray="1,5" points="8,-70 8,-138 160,-138 160,-70 8,-70"/>
</g>
<g id="clust12" class="cluster">
<title>cluster_PostsModule_providers</title>
<polygon fill="none" stroke="black" points="16,-78 16,-130 152,-130 152,-78 16,-78"/>
</g>
<g id="clust13" class="cluster">
<title>cluster_UsersModule</title>
<polygon fill="none" stroke="black" stroke-dasharray="1,5" points="310,-146 310,-214 584,-214 584,-146 310,-146"/>
</g>
<g id="clust16" class="cluster">
<title>cluster_UsersModule_exports</title>
<polygon fill="none" stroke="black" points="466,-154 466,-206 576,-206 576,-154 466,-154"/>
</g>
<g id="clust18" class="cluster">
<title>cluster_UsersModule_providers</title>
<polygon fill="none" stroke="black" points="318,-154 318,-206 458,-206 458,-154 318,-154"/>
</g>
<!-- PostsModule -->
<g id="node1" class="node">
<title>PostsModule</title>
<polygon fill="#8dd3c7" stroke="black" points="273.61,-198 270.61,-202 249.61,-202 246.61,-198 184.39,-198 184.39,-162 273.61,-162 273.61,-198"/>
<text text-anchor="middle" x="229" y="-175.8" font-family="Times,serif" font-size="14.00">PostsModule</text>
</g>
<!-- AppModule -->
<g id="node3" class="node">
<title>AppModule</title>
<polygon fill="#8dd3c7" stroke="black" points="281.66,-263 278.66,-267 257.66,-267 254.66,-263 198.34,-263 198.34,-227 281.66,-227 281.66,-263"/>
<text text-anchor="middle" x="240" y="-240.8" font-family="Times,serif" font-size="14.00">AppModule</text>
</g>
<!-- PostsModule&#45;&gt;AppModule -->
<g id="edge1" class="edge">
<title>PostsModule&#45;&gt;AppModule</title>
<path fill="none" stroke="black" d="M235.86,-198.11C235.86,-198.11 235.86,-216.99 235.86,-216.99"/>
<polygon fill="black" stroke="black" points="232.36,-216.99 235.86,-226.99 239.36,-216.99 232.36,-216.99"/>
</g>
<!-- UsersModule -->
<g id="node2" class="node">
<title>UsersModule</title>
<polygon fill="#8dd3c7" stroke="black" points="275.92,-122 272.92,-126 251.92,-126 248.92,-122 184.08,-122 184.08,-86 275.92,-86 275.92,-122"/>
<text text-anchor="middle" x="230" y="-99.8" font-family="Times,serif" font-size="14.00">UsersModule</text>
</g>
<!-- UsersModule&#45;&gt;PostsModule -->
<g id="edge3" class="edge">
<title>UsersModule&#45;&gt;PostsModule</title>
<path fill="none" stroke="black" d="M229,-122.01C229,-122.01 229,-151.85 229,-151.85"/>
<polygon fill="black" stroke="black" points="225.5,-151.85 229,-161.85 232.5,-151.85 225.5,-151.85"/>
</g>
<!-- UsersModule&#45;&gt;AppModule -->
<g id="edge2" class="edge">
<title>UsersModule&#45;&gt;AppModule</title>
<path fill="none" stroke="black" d="M275.98,-113C291.01,-113 303.93,-113 303.93,-113 303.93,-113 303.93,-245 303.93,-245 303.93,-245 291.93,-245 291.93,-245"/>
<polygon fill="black" stroke="black" points="291.93,-241.5 281.93,-245 291.93,-248.5 291.93,-241.5"/>
</g>
<!-- UsersService  -->
<g id="node5" class="node">
<title>UsersService </title>
<polygon fill="#fb8072" stroke="black" points="567.85,-198 474.15,-198 474.15,-162 567.85,-162 567.85,-198"/>
<text text-anchor="middle" x="521" y="-175.8" font-family="Times,serif" font-size="14.00">UsersService </text>
</g>
<!-- UsersModule&#45;&gt;UsersService  -->
<g id="edge5" class="edge">
<title>UsersModule&#45;&gt;UsersService </title>
<path fill="none" stroke="black" stroke-dasharray="5,2" d="M275.79,-95C357.74,-95 521,-95 521,-95 521,-95 521,-151.97 521,-151.97"/>
<polygon fill="black" stroke="black" points="517.5,-151.97 521,-161.97 524.5,-151.97 517.5,-151.97"/>
</g>
<!-- PostsService -->
<g id="node4" class="node">
<title>PostsService</title>
<ellipse fill="#fdb462" stroke="black" cx="84" cy="-104" rx="60.27" ry="18"/>
<text text-anchor="middle" x="84" y="-99.8" font-family="Times,serif" font-size="14.00">PostsService</text>
</g>
<!-- PostsService&#45;&gt;PostsModule -->
<g id="edge4" class="edge">
<title>PostsService&#45;&gt;PostsModule</title>
<path fill="none" stroke="black" d="M84,-122.01C84,-144.49 84,-180 84,-180 84,-180 174.31,-180 174.31,-180"/>
<polygon fill="black" stroke="black" points="174.31,-183.5 184.31,-180 174.31,-176.5 174.31,-183.5"/>
</g>
<!-- UsersService -->
<g id="node6" class="node">
<title>UsersService</title>
<ellipse fill="#fdb462" stroke="black" cx="388" cy="-180" rx="61.95" ry="18"/>
<text text-anchor="middle" x="388" y="-175.8" font-family="Times,serif" font-size="14.00">UsersService</text>
</g>
<!-- UsersService&#45;&gt;UsersModule -->
<g id="edge6" class="edge">
<title>UsersService&#45;&gt;UsersModule</title>
<path fill="none" stroke="black" d="M388,-161.99C388,-139.51 388,-104 388,-104 388,-104 286.12,-104 286.12,-104"/>
<polygon fill="black" stroke="black" points="286.12,-100.5 276.12,-104 286.12,-107.5 286.12,-100.5"/>
</g>
</g>
</svg>
